<mxfile host="app.diagrams.net" modified="2023-08-23T02:51:51.598Z" agent="Mozilla/5.0 (Windows NT 10.0; Win64; x64) AppleWebKit/537.36 (KHTML, like Gecko) Chrome/116.0.0.0 Safari/537.36" version="21.6.9" etag="GBy4wola-9oI50AoO5tP" type="github">
  <diagram name="第 1 页" id="r62pjHVNPaQzzCw_Q6--">
    <mxGraphModel>
      <root>
        <mxCell id="0" />
        <mxCell id="1" parent="0" />
      </root>
    </mxGraphModel>
  </diagram>
</mxfile>
